<?xml version="1.0" standalone="no"?><svg xmlns="http://www.w3.org/2000/svg" viewBox="0 0 1440 320"><path fill="#ede9e9" fill-opacity="1" d="M0,320L0,160L75.8,160L75.8,96L151.6,96L151.6,224L227.4,224L227.4,96L303.2,96L303.2,64L378.9,64L378.9,192L454.7,192L454.7,32L530.5,32L530.5,64L606.3,64L606.3,160L682.1,160L682.1,96L757.9,96L757.9,160L833.7,160L833.7,160L909.5,160L909.5,96L985.3,96L985.3,288L1061.1,288L1061.1,64L1136.8,64L1136.8,128L1212.6,128L1212.6,96L1288.4,96L1288.4,288L1364.2,288L1364.2,128L1440,128L1440,320L1364.2,320L1364.2,320L1288.4,320L1288.4,320L1212.6,320L1212.6,320L1136.8,320L1136.8,320L1061.1,320L1061.1,320L985.3,320L985.3,320L909.5,320L909.5,320L833.7,320L833.7,320L757.9,320L757.9,320L682.1,320L682.1,320L606.3,320L606.3,320L530.5,320L530.5,320L454.7,320L454.7,320L378.9,320L378.9,320L303.2,320L303.2,320L227.4,320L227.4,320L151.6,320L151.6,320L75.8,320L75.8,320L0,320L0,320Z"></path></svg>